<?xml version="1.0" encoding="utf-8"?>
<svg width="800px" height="800px" viewBox="8 4 42 26" fill="none" xmlns="http://www.w3.org/2000/svg">
<path d="M34.0465 25.8715H24.2359V8.3783H34.0465V25.8715Z" fill="#FF5F00"/>
<path d="M24.8583 17.1253C24.8583 13.5767 26.5328 10.4157 29.1405 8.37867C27.2336 6.88907 24.8269 5.99998 22.2114 5.99998C16.0194 5.99998 11 10.9809 11 17.1253C11 23.2697 16.0194 28.2506 22.2114 28.2506C24.8269 28.2506 27.2336 27.3615 29.1405 25.8719C26.5328 23.8349 24.8583 20.6739 24.8583 17.1253" fill="#EB001B"/>
<path d="M47.2818 17.1253C47.2818 23.2697 42.2624 28.2506 36.0704 28.2506C33.4548 28.2506 31.0482 27.3615 29.1405 25.8719C31.7489 23.8349 33.4235 20.6739 33.4235 17.1253C33.4235 13.5767 31.7489 10.4157 29.1405 8.37867C31.0482 6.88907 33.4548 5.99998 36.0704 5.99998C42.2624 5.99998 47.2818 10.9809 47.2818 17.1253" fill="#F79E1B"/>
</svg>