<svg xmlns="http://www.w3.org/2000/svg" width="240" height="71" fill="none">
  <path fill="#111" d="M180.931 14.91c4.112 0 7.445-3.337 7.445-7.455 0-4.117-3.333-7.455-7.445-7.455s-7.446 3.338-7.446 7.455c0 4.118 3.334 7.456 7.446 7.456Z" style="fill:#111;fill:color(display-p3 .0667 .0667 .0667);fill-opacity:1"/>
  <path fill="#111" fill-rule="evenodd" d="M101.51 23.186c-13.179 0-23.876 10.736-23.876 23.907S88.356 71 101.51 71c13.154 0 23.876-10.736 23.876-23.907s-10.697-23.907-23.876-23.907Zm0 36.507c-6.925 0-12.559-5.641-12.559-12.575 0-6.933 5.634-12.575 12.559-12.575 6.924 0 12.558 5.642 12.558 12.575 0 6.934-5.634 12.575-12.558 12.575Z" clip-rule="evenodd" style="fill:#111;fill:color(display-p3 .0667 .0667 .0667);fill-opacity:1"/>
  <path fill="#111" d="M50.929 23.137c.62 0 1.216.024 1.836.074 5.212.447 10.002 2.858 13.502 6.785a21.239 21.239 0 0 1 5.435 14.19V70.03H60.285V43.862c-.024-5.144-4.269-9.344-9.43-9.344-.299 0-.621.025-.944.05-4.616.472-8.488 4.846-8.488 9.568V70.03H30.006V43.937c-.025-5.17-4.244-9.394-9.406-9.394-.298 0-.62.025-.943.05-4.592.472-8.488 4.846-8.488 9.592v25.846H0V43.862c0-11.431 9.307-20.726 20.724-20.726 5.708 0 11.144 2.386 15.065 6.536a20.728 20.728 0 0 1 15.14-6.535ZM142.958 1.118h-11.417v68.963h11.417V1.118ZM153.382 1.118h11.417v68.963h-11.417V1.118ZM175.222 24.33v45.726h11.417V24.329h-11.417Z" style="fill:#111;fill:color(display-p3 .0667 .0667 .0667);fill-opacity:1"/>
  <path fill="#111" fill-rule="evenodd" d="M233.373 29.896C237.642 34.245 240 39.961 240 46.024v5.244h-34.722a12.825 12.825 0 0 0 12.36 9.394c4.542 0 8.637-2.311 10.995-6.213l.471-.77 9.431 4.647-.546.92c-4.293 7.231-12.161 11.73-20.55 11.73h-.024c-6.404 0-12.41-2.535-16.952-7.133-4.542-4.598-6.999-10.662-6.924-17.073.074-6.287 2.556-12.177 6.974-16.625a23.654 23.654 0 0 1 16.579-7.008h.298c6.031 0 11.689 2.41 15.983 6.759Zm-4.914 11.929c-1.638-4.871-6.304-8.3-11.516-8.3s-9.878 3.429-11.491 8.3h23.007Z" clip-rule="evenodd" style="fill:#111;fill:color(display-p3 .0667 .0667 .0667);fill-opacity:1"/>
</svg>