<svg xmlns="http://www.w3.org/2000/svg" xmlns:svg="http://www.w3.org/2000/svg" id="svg1" width="730.303" height="87.144" version="1.1" viewBox="0 0 193.226 23.057" xml:space="preserve"><g id="layer3" style="display:inline" transform="translate(-1.73363,-1.9339461)"><path id="use3" style="fill:#000;stroke:#000;stroke-width:.2;stroke-linecap:butt;stroke-linejoin:miter;stroke-miterlimit:2.9;stroke-dasharray:none;stroke-opacity:1" d="m 36.26265,2.063181 v 2.46083 h 3.27371 v 17.81907 h -3.25717 v 2.54765 h 9.22734 v -2.54765 H 42.24885 V 4.524011 h 3.27422 v -2.46083 z"/><path style="fill:#000;stroke:#000;stroke-width:.2;stroke-linecap:butt;stroke-linejoin:miter;stroke-miterlimit:2.9;stroke-dasharray:none;stroke-opacity:1" id="use2" d="m 18.73327,2.063181 h 11.36952 v 2.46073 h -8.90548 v 7.2719 h 7.70382 v 2.38952 h -7.70382 v 8.1112 h 9.56372 v 2.54762 H 18.72397 Z"/><path id="use1" style="fill:#000;stroke:#000;stroke-width:.2;stroke-linecap:butt;stroke-linejoin:miter;stroke-miterlimit:2.9;stroke-dasharray:none;stroke-opacity:1" d="m 2.25892,2.063181 v 2.46084 h 8.52661 l -8.9519,17.77255 v 2.54765 H 14.0272 v -2.54765 H 4.66756 l 9.02581,-17.92965 -0.003,-2.30374 h -0.11266 z"/><path id="use4" style="fill:#000;stroke:#000;stroke-width:.2;stroke-linecap:butt;stroke-linejoin:miter;stroke-miterlimit:2.9;stroke-dasharray:none;stroke-opacity:1" d="m 49.98975,2.063181 v 2.46084 h 5.54385 v 20.3202 h 2.63446 v -20.3202 h 5.54385 v -2.46084 z"/><path style="fill:#000;stroke:#000;stroke-width:.2;stroke-linecap:butt;stroke-linejoin:miter;stroke-miterlimit:2.9;stroke-dasharray:none;stroke-opacity:1" id="use5" d="m 69.42514,2.063181 4.22222,19.72324 4.22412,-19.72324 h 2.78294 l -5.36711,22.78097 H 72.0689 L 66.71631,2.063181 Z"/><path style="fill:#000;stroke:#000;stroke-width:.2;stroke-linecap:butt;stroke-linejoin:miter;stroke-miterlimit:2.9;stroke-dasharray:none;stroke-opacity:1" id="use6" d="m 150.70436,2.063182 h 11.36952 v 2.46073 h -8.90548 v 7.2719 h 7.70382 v 2.38952 h -7.70382 v 8.1112 h 9.56372 v 2.54762 h -12.03706 z"/><path id="use7" style="fill:#000;stroke:#000;stroke-width:.2;stroke-linecap:butt;stroke-linejoin:miter;stroke-miterlimit:2.9;stroke-dasharray:none;stroke-opacity:1" d="m 139.09687,2.045097 c -1.10214,-0.0323 -2.21443,0.016 -3.2215,0.016 h -2.53835 v 22.78104 h 2.53835 v -10.64638 c 0.57768,0 1.72716,0.084 3.04012,-0.008 l 4.42815,10.65464 h 2.84841 l -4.8643,-11.05617 c 2.2497,-0.64525 4.28966,-2.18785 4.28966,-5.79655 0,-5.02477 -3.21411,-5.84734 -6.52054,-5.94434 z m -3.2215,2.47686 h 3.12177 c 0.86053,0 4.09071,1.8e-4 4.09071,3.47369 0,3.2858 -3.35765,3.89071 -4.09071,3.89071 l -3.12177,0.0114 z"/><path id="use8" style="fill:#000;stroke:#000;stroke-width:.2;stroke-linecap:butt;stroke-linejoin:miter;stroke-miterlimit:2.9;stroke-dasharray:none;stroke-opacity:1" d="m 115.9501,2.063181 v 2.46084 h 5.54385 v 20.3202 h 2.63446 v -20.3202 h 5.54385 v -2.46084 z"/><path id="use9" style="fill:#000;stroke:#000;stroke-width:.2;stroke-linecap:butt;stroke-linejoin:miter;stroke-miterlimit:2.9;stroke-dasharray:none;stroke-opacity:1" d="m 106.64609,2.045394 c -1.10214,-0.0323 -2.21443,0.016 -3.2215,0.016 h -2.53835 v 22.78104 h 2.53835 v -10.64638 c 0.57768,0 1.72716,0.084 3.04012,-0.008 l 4.42815,10.65464 h 2.84841 l -4.8643,-11.05617 c 2.2497,-0.64525 4.28966,-2.18785 4.28966,-5.79655 0,-5.02477 -3.21411,-5.84734 -6.52054,-5.94434 z m -3.2215,2.47686 h 3.12177 c 0.86053,0 4.09071,1.8e-4 4.09071,3.47369 0,3.2858 -3.35765,3.89071 -4.09071,3.89071 l -3.12177,0.0114 z"/><path style="fill:#000;stroke:#000;stroke-width:.2;stroke-linecap:butt;stroke-linejoin:miter;stroke-miterlimit:2.9;stroke-dasharray:none;stroke-opacity:1" id="use10" d="m 84.46459,2.063182 h 11.36952 v 2.46073 h -8.90548 v 7.2719 h 7.70382 v 2.38952 h -7.70382 v 8.1112 h 9.56372 v 2.54762 H 84.45529 Z"/><path id="use11" style="fill:#000;stroke:#000;stroke-width:.2;stroke-linecap:butt;stroke-linejoin:miter;stroke-miterlimit:2.9;stroke-dasharray:none;stroke-opacity:1" d="m 168.00684,2.063181 v 2.46083 h 3.27371 v 17.81907 h -3.25717 v 2.54765 h 9.22734 v -2.54765 h -3.25768 V 4.524011 h 3.27422 v -2.46083 z"/><path id="use12" style="fill:#000;stroke:#000;stroke-width:.2;stroke-linecap:butt;stroke-linejoin:miter;stroke-miterlimit:2.9;stroke-dasharray:none;stroke-opacity:1" d="m 182.3793,2.060008 v 22.78104 h 2.50941 3.80597 c 3.29728,0 6.165,-2.54764 6.165,-6.165 0,-2.08974 -0.61382,-4.63621 -3.62149,-5.65236 1.68396,-0.92088 2.76301,-2.49764 2.90887,-5.00797 0,-5.02477 -3.2141,-5.84734 -6.52053,-5.94434 -0.77294,-0.0226 -2.04616,-0.0192 -2.73782,-0.006 v -0.006 z m 2.50941,2.48822 h 2.63808 c 0.86053,0 4.09071,1.8e-4 4.09071,3.47369 0,3.2858 -3.35765,3.8437 -4.09071,3.8437 l -2.63808,0.01 z m 0,9.64903 h 3.22099 c 2.36893,0 4.09691,1.12207 4.09691,4.59558 0,3.2858 -3.46307,3.50056 -4.19613,3.50056 l -3.12177,0.0114 z"/></g></svg>