<svg xmlns="http://www.w3.org/2000/svg" width="160" height="160" fill="none" viewBox="0 0 160 160"><defs><linearGradient id="lid" x1="30" x2="130" y1="42" y2="68" gradientUnits="userSpaceOnUse"><stop stop-color="#FBBF24"/><stop offset="1" stop-color="#D97706"/></linearGradient><linearGradient id="front" x1="30" x2="130" y1="66" y2="122" gradientUnits="userSpaceOnUse"><stop stop-color="#F59E0B"/><stop offset="1" stop-color="#B45309"/></linearGradient><linearGradient id="stripe" x1="76" x2="84" y1="66" y2="122" gradientUnits="userSpaceOnUse"><stop stop-color="#92400E"/><stop offset="1" stop-color="#78350F"/></linearGradient></defs><rect width="96" height="6" x="32" y="64" fill="rgba(0,0,0,0.35)" rx="4"/><rect width="100" height="56" x="30" y="66" fill="url(#front)" rx="10"/><rect width="8" height="56" x="76" y="66" fill="url(#stripe)" rx="2"/><rect width="96" height="8" x="32" y="112" fill="rgba(0,0,0,0.18)" rx="4"/><rect width="20" height="16" x="70" y="85" fill="#FDE68A" opacity=".95" rx="4"/><path fill="none" stroke="#A16207" stroke-linecap="round" stroke-width="2.5" d="M75 85 Q75 78 80 78 Q85 78 85 85"/><circle cx="80" cy="92" r="2.5" fill="#A16207"/><rect width="100" height="26" x="30" y="42" fill="url(#lid)" rx="8"/><rect width="96" height="4" x="32" y="65" fill="rgba(0,0,0,0.2)" rx="2"/><rect width="60" height="4" x="38" y="46" fill="rgba(255,255,255,0.22)" rx="2"/><rect width="8" height="48" x="30" y="42" fill="#92400E" opacity=".6" rx="3"/><rect width="8" height="48" x="122" y="42" fill="#92400E" opacity=".6" rx="3"/><path fill="#FCD34D" d="M22 36 L24 30 L26 36 L32 38 L26 40 L24 46 L22 40 L16 38 Z" opacity=".9"/><path fill="#FCD34D" d="M134 26 L135.5 22 L137 26 L141 27.5 L137 29 L135.5 33 L134 29 L130 27.5 Z" opacity=".7"/></svg>